<?xml version="1.0" standalone="no"?><!DOCTYPE svg PUBLIC "-//W3C//DTD SVG 1.1//EN" "http://www.w3.org/Graphics/SVG/1.1/DTD/svg11.dtd"><svg t="1570447822690" class="icon" viewBox="0 0 1024 1024" version="1.1" xmlns="http://www.w3.org/2000/svg" p-id="2493" xmlns:xlink="http://www.w3.org/1999/xlink" width="200" height="200"><defs><style type="text/css"></style></defs><path d="M257.8432 841.472H175.104a69.9904 69.9904 0 0 1-69.8368-69.9392v-368.64A69.9392 69.9392 0 0 1 175.104 332.8h99.6352a33.9968 33.9968 0 0 1 33.9456 35.2256L291.84 808.96a33.9968 33.9968 0 0 1-33.8944 32.5632zM200.6528 400.7936a27.648 27.648 0 0 0-27.5968 27.5456v317.696a27.6992 27.6992 0 0 0 27.5968 27.5968 25.6 25.6 0 0 0 25.6-24.5248l12.4416-321.8432a25.6 25.6 0 0 0-25.6-26.4704z m-25.6 0M918.6816 434.176a6.2464 6.2464 0 0 1 0 1.3824l-0.6656 6.144v1.0752l-66.56 300.1344a7.8848 7.8848 0 0 0 0 1.536 101.9904 101.9904 0 0 1-101.7344 97.024H398.6944a71.68 71.68 0 0 1-71.68-74.3424l14.0288-365.2608a71.68 71.68 0 0 1 71.68-69.0688H430.08a10.24 10.24 0 0 0 9.5232-6.7072l54.784-153.6a115.968 115.968 0 0 1 224.0512 55.4496l-13.3632 93.2864a10.24 10.24 0 0 0 10.24 11.5712h101.5808a101.9392 101.9392 0 0 1 101.7856 101.376z" fill="#666666" p-id="2494"></path></svg>