<?xml version="1.0" standalone="no"?><!DOCTYPE svg PUBLIC "-//W3C//DTD SVG 1.1//EN" "http://www.w3.org/Graphics/SVG/1.1/DTD/svg11.dtd"><svg t="1572258763631" class="icon" viewBox="0 0 1024 1024" version="1.1" xmlns="http://www.w3.org/2000/svg" p-id="1924" xmlns:xlink="http://www.w3.org/1999/xlink" width="200" height="200"><defs><style type="text/css"></style></defs><path d="M231.632 774.312c-140.976-151.64-138.488-389.208 7.912-536.672 59.96-60.328 134.864-96.352 212.776-108.192L448.016 0C338.696 13.28 232.872 62.072 149.048 146.456-47.216 344.16-49.52 663.136 141.376 865.184L32.872 974.448l343.408 18.76L375.344 629.6 231.632 774.312 231.632 774.312zM645.832 28.976l0.936 363.608 143.784-144.784c140.984 151.64 138.544 389.208-7.912 536.68-59.952 60.392-134.864 96.352-212.84 108.192l4.304 129.384c109.376-13.272 215.208-62.08 299.032-146.52 196.2-197.64 198.632-516.672 7.608-718.664l108.504-109.256L645.832 28.976 645.832 28.976z" p-id="1925"></path></svg>