<?xml version="1.0" standalone="no"?><!DOCTYPE svg PUBLIC "-//W3C//DTD SVG 1.1//EN" "http://www.w3.org/Graphics/SVG/1.1/DTD/svg11.dtd"><svg t="1572158957804" class="icon" viewBox="0 0 1024 1024" version="1.1" xmlns="http://www.w3.org/2000/svg" p-id="10826" xmlns:xlink="http://www.w3.org/1999/xlink" width="200" height="200"><defs><style type="text/css"></style></defs><path d="M190.93 761.206a26.081 26.081 0 0 1-26.05-26.061 26.081 26.081 0 0 1 26.05-26.05h643.876c6.958 0 13.501 2.708 18.422 7.628s7.628 11.459 7.628 18.422-2.708 13.501-7.628 18.422-11.459 7.639-18.422 7.639H190.93z m0-223.15c-14.367 0-26.05-11.69-26.05-26.061s11.683-26.05 26.05-26.05h643.876c6.958 0 13.501 2.708 18.422 7.628s7.628 11.459 7.628 18.422-2.708 13.501-7.628 18.422-11.459 7.639-18.422 7.639H190.93z m0-222.72a26.081 26.081 0 0 1-26.05-26.05 26.076 26.076 0 0 1 26.05-26.051h643.876c14.372 0 26.05 11.689 26.05 26.05s-11.678 26.046-26.05 26.046H190.93z" fill="#2C2C2C" p-id="10827"></path></svg>